<svg xmlns="http://www.w3.org/2000/svg" xmlns:xlink="http://www.w3.org/1999/xlink" version="1.1" width="256" height="256" viewBox="0 0 256 256" xml:space="preserve">

<defs>
</defs>
<g style="stroke: none; stroke-width: 0; stroke-dasharray: none; stroke-linecap: butt; stroke-linejoin: miter; stroke-miterlimit: 10; fill: none; fill-rule: nonzero; opacity: 1;" transform="translate(1.4065934065934016 1.4065934065934016) scale(2.81 2.81)" >
	<path d="M 34.15 90 c -6.499 0 -12.627 -2.073 -17.725 -5.995 c -0.951 -0.732 -1.866 -1.532 -2.723 -2.378 c -5.947 -5.878 -8.94 -13.705 -8.426 -22.041 c 0.389 -6.3 2.928 -12.372 7.149 -17.1 c 5.594 -6.266 13.309 -9.717 21.724 -9.717 c 1.445 0 2.906 0.108 4.343 0.321 c 0.98 0.146 1.706 0.987 1.706 1.979 v 14.257 c 0 0.642 -0.308 1.245 -0.828 1.621 c -0.521 0.375 -1.19 0.479 -1.799 0.278 c -1.093 -0.361 -2.229 -0.544 -3.38 -0.544 c -2.905 0 -5.626 1.138 -7.663 3.204 c -2.025 2.057 -3.118 4.777 -3.074 7.662 c 0.055 3.721 2.014 7.094 5.239 9.022 c 1.486 0.89 3.179 1.409 4.896 1.503 c 1.356 0.074 2.695 -0.104 3.981 -0.527 c 4.4 -1.454 7.357 -5.536 7.357 -10.159 L 44.948 2 c 0 -1.104 0.896 -2 2 -2 H 60.99 c 1.098 0 1.99 0.884 2 1.982 c 0.012 1.249 0.139 2.491 0.378 3.691 c 0.943 4.741 3.601 8.962 7.481 11.888 c 3.426 2.584 7.51 3.957 11.815 3.973 c 0.154 -0.01 0.313 0 0.471 0.029 c 0.951 0.172 1.643 1 1.643 1.967 v 13.98 c 0 1.104 -0.896 2 -1.999 2 c -0.004 0 -0.009 0 -0.012 0 c -5.073 0 -10.002 -0.995 -14.651 -2.957 c -1.768 -0.747 -3.474 -1.625 -5.101 -2.627 l 0.063 27.565 c -0.032 7.617 -3.045 14.763 -8.48 20.136 c -4.412 4.361 -9.981 7.146 -16.106 8.054 C 37.065 89.893 35.604 90 34.15 90 z M 34.15 36.769 c -7.26 0 -13.916 2.977 -18.74 8.381 c -3.626 4.061 -5.807 9.274 -6.141 14.682 c -0.441 7.166 2.132 13.896 7.246 18.949 c 0.74 0.731 1.531 1.422 2.352 2.055 C 23.256 84.214 28.542 86 34.15 86 c 1.258 0 2.521 -0.093 3.755 -0.276 c 5.278 -0.781 10.078 -3.182 13.88 -6.941 c 4.675 -4.62 7.265 -10.762 7.293 -17.295 l -0.072 -31.372 c -0.002 -0.763 0.431 -1.461 1.115 -1.798 c 0.685 -0.336 1.503 -0.257 2.106 0.21 c 2.276 1.756 4.78 3.216 7.443 4.341 c 3.544 1.495 7.271 2.362 11.106 2.584 v -9.998 c -4.485 -0.362 -8.716 -1.969 -12.337 -4.7 c -4.666 -3.517 -7.86 -8.596 -8.996 -14.3 C 59.285 5.649 59.166 4.829 59.09 4 H 48.948 l -0.018 57.389 c 0 6.35 -4.06 11.959 -10.104 13.956 c -1.763 0.581 -3.598 0.821 -5.454 0.723 c -2.364 -0.129 -4.692 -0.843 -6.732 -2.064 c -4.423 -2.646 -7.109 -7.279 -7.186 -12.396 c -0.059 -3.964 1.441 -7.703 4.225 -10.528 c 2.793 -2.836 6.527 -4.397 10.512 -4.397 c 0.673 0 1.343 0.046 2.007 0.137 v -9.966 C 35.516 36.797 34.831 36.769 34.15 36.769 z" style="stroke: none; stroke-width: 1; stroke-dasharray: none; stroke-linecap: butt; stroke-linejoin: miter; stroke-miterlimit: 10; fill: rgb(0,0,0); fill-rule: nonzero; opacity: 1;" transform=" matrix(1 0 0 1 0 0) " stroke-linecap="round" />
</g>
</svg>